<?xml version="1.0" standalone="no"?>
<!DOCTYPE svg PUBLIC "-//W3C//DTD SVG 20010904//EN"
 "http://www.w3.org/TR/2001/REC-SVG-20010904/DTD/svg10.dtd">
<svg version="1.0" xmlns="http://www.w3.org/2000/svg"
 width="450.000000pt" height="194.000000pt" viewBox="0 0 450.000000 194.000000"
 preserveAspectRatio="xMidYMid meet">
<metadata>
Created by potrace 1.10, written by Peter Selinger 2001-2011
</metadata>
<g transform="translate(0.000000,194.000000) scale(0.050000,-0.050000)"
fill="#f00000" stroke="none">
<path d="M1573 2910 c-29 -52 -53 -98 -53 -103 0 -13 193 -7 206 6 8 7 4 24
-7 38 -26 31 57 62 216 80 277 31 594 -116 750 -349 44 -64 109 -45 73 22
-158 295 -625 469 -976 365 -98 -29 -107 -29 -131 2 -22 31 -30 24 -78 -61z"/>
<path d="M1666 2680 c-486 -159 -638 -812 -276 -1189 495 -515 1364 -92 1251
609 -73 458 -525 727 -975 580z m214 -179 l0 -158 -75 11 c-107 16 -117 33
-74 128 98 218 149 225 149 19z m112 144 c115 -79 140 -266 39 -293 -88 -24
-91 -18 -91 148 0 156 7 175 52 145z m-267 -60 c-21 -30 -50 -84 -64 -120 -27
-68 -58 -66 -146 11 -40 34 -20 55 123 126 107 54 132 49 87 -17z m504 0 c112
-63 130 -93 73 -124 -58 -31 -124 6 -175 100 -52 94 -34 98 102 24z m-719
-174 c39 -26 80 -51 91 -55 37 -12 -2 -194 -45 -207 -21 -7 -48 -34 -60 -61
-23 -50 -217 -74 -244 -30 -27 42 132 402 177 402 5 0 41 -22 81 -49z m970
-50 c50 -79 129 -290 113 -304 -18 -15 -326 -5 -338 12 -22 32 -18 227 5 241
11 7 20 28 20 47 0 29 86 101 123 102 7 1 41 -44 77 -98z m-264 14 c8 -40 -49
-70 -78 -41 -28 28 1 89 39 82 18 -4 36 -22 39 -41z m-371 -88 c68 -19 49
-247 -21 -247 -75 0 -164 102 -164 189 0 96 23 104 185 58z m282 -9 c40 -18
51 -41 58 -115 11 -123 11 -123 -126 -123 l-119 0 0 119 c0 107 4 119 45 127
79 15 92 14 142 -8z m-451 -251 c5 -50 -3 -66 -36 -77 -53 -17 -100 21 -100
81 0 94 127 91 136 -4z m-152 -99 c34 -26 58 -70 66 -120 8 -43 18 -93 23
-111 5 -21 -6 -39 -32 -47 -23 -7 -69 -36 -103 -65 -51 -42 -65 -47 -80 -23
-76 115 -98 162 -128 264 -18 64 -29 127 -24 141 15 38 216 11 278 -39z m356
-57 c0 -145 3 -141 -122 -159 l-92 -14 -13 96 c-9 64 -6 98 9 103 12 4 39 27
60 51 21 24 65 46 98 48 l60 5 0 -130z m303 7 c-7 -120 -37 -158 -125 -158
-105 0 -118 16 -118 139 0 139 -8 131 133 129 l117 -2 -7 -108z m402 38 c-7
-92 -61 -234 -119 -311 -93 -125 -239 61 -214 275 l12 110 163 -4 163 -4 -5
-66z m-360 -241 c13 -37 -5 -75 -36 -75 -35 0 -55 35 -41 71 13 36 65 38 77 4z
m-345 -176 c0 -210 -30 -221 -124 -45 -98 183 -92 195 109 224 8 1 15 -79 15
-179z m151 170 c104 -28 101 -182 -6 -294 -78 -82 -85 -71 -85 125 0 187 3
192 91 169z m-339 -200 c33 -71 53 -129 44 -129 -21 0 -166 73 -234 117 l-47
31 67 56 c91 76 99 72 170 -75z m656 -4 c-52 -39 -222 -125 -247 -125 -32 0
77 188 125 213 66 36 179 -45 122 -88z"/>
<path d="M3992 2450 c-53 -26 -116 -52 -140 -58 -40 -11 -39 -14 18 -60 l60
-48 6 -325 c8 -368 1 -419 -56 -419 -22 0 -40 -13 -40 -28 0 -38 322 -35 335
3 5 14 -5 25 -21 25 -53 0 -77 276 -35 388 23 59 107 88 151 52 44 -37 44
-440 0 -440 -16 0 -30 -13 -30 -28 0 -36 322 -35 334 1 5 13 -12 27 -38 30
-44 7 -46 15 -52 221 -7 288 -142 408 -309 276 -77 -60 -78 -58 -63 210 8 145
6 249 -4 248 -10 0 -62 -22 -116 -48z"/>
<path d="M958 2350 c-145 -327 -45 -760 228 -993 54 -45 59 -57 36 -85 -24
-29 -15 -32 86 -32 127 0 127 0 69 98 -58 96 -57 95 -76 64 -27 -44 -68 -15
-168 118 -174 232 -221 551 -115 791 50 113 52 129 11 129 -18 0 -49 -39 -71
-90z"/>
<path d="M6451 2329 c-43 -44 -39 -83 14 -118 60 -39 132 -19 147 42 24 92
-90 146 -161 76z"/>
<path d="M3462 2053 c-154 -89 -121 -299 54 -342 128 -32 175 -98 113 -160
-50 -49 -89 -37 -172 52 -88 96 -106 92 -88 -20 10 -58 25 -82 57 -91 346 -92
517 274 174 374 -102 29 -140 75 -101 122 40 49 108 38 171 -28 71 -74 90 -75
90 -5 -1 111 -176 169 -298 98z"/>
<path d="M4781 2043 c-164 -88 -195 -367 -55 -496 117 -107 335 -88 423 37 60
86 25 102 -68 33 -115 -85 -248 -13 -274 149 l-12 70 172 -11 c200 -12 221 4
160 129 -61 125 -208 163 -346 89z m175 -47 c61 -61 29 -116 -67 -116 -86 0
-91 3 -78 45 28 92 92 124 145 71z"/>
<path d="M5330 2039 c-44 -21 -89 -42 -100 -47 -11 -5 1 -26 26 -47 49 -39 54
-75 47 -300 -3 -91 -8 -105 -43 -105 -22 0 -40 -12 -40 -26 0 -20 47 -27 190
-28 184 -1 282 41 135 58 -54 6 -55 9 -61 158 -8 212 13 259 108 244 58 -10
80 -4 101 25 39 53 62 21 166 -221 152 -356 133 -356 302 -10 98 201 138 264
173 273 89 22 45 47 -84 47 -135 0 -153 -9 -96 -50 31 -23 30 -34 -13 -152
-71 -198 -77 -197 -153 19 -37 105 -37 107 1 135 54 39 46 41 -195 54 -220 12
-294 -10 -294 -86 0 -11 -9 -20 -20 -20 -11 0 -20 27 -20 60 0 69 -18 72 -130
19z"/>
<path d="M6490 2047 c-44 -15 -93 -33 -110 -39 -24 -9 -21 -18 15 -48 65 -53
70 -420 5 -420 -22 0 -40 -12 -40 -26 0 -19 48 -26 180 -27 141 -2 180 4 180
25 0 16 -18 28 -40 28 -56 0 -67 67 -55 322 11 244 16 238 -135 185z"/>
<path d="M6860 2034 c-119 -57 -117 -54 -65 -89 67 -45 70 -405 3 -405 -24 0
-38 -10 -33 -25 6 -17 55 -25 155 -25 100 0 149 8 155 25 5 14 -6 25 -24 25
-65 0 -35 401 33 439 130 72 212 -353 86 -448 -49 -36 -56 -34 145 -40 127 -4
165 1 165 22 0 15 -18 27 -40 27 -37 0 -40 13 -40 199 0 110 -10 221 -22 248
-44 97 -212 125 -307 51 l-53 -43 -12 43 c-13 52 -32 51 -146 -4z"/>
<path d="M2774 1855 c-48 -81 -49 -85 -12 -91 46 -8 46 7 -1 -148 -93 -299
-357 -521 -659 -554 -148 -16 -178 -82 -37 -82 357 0 795 410 795 744 0 23 15
36 40 36 51 0 51 5 -13 100 -64 97 -53 97 -113 -5z"/>
</g>
</svg>
